<svg width="42" height="42" viewBox="0 0 42 42" fill="none" xmlns="http://www.w3.org/2000/svg">
<path d="M22.4848 28.259C22.0329 28.2458 21.6535 28.6007 21.6394 29.0535C21.5622 31.5436 20.3804 33.8432 18.3975 35.3628C18.0379 35.6383 17.9697 36.1532 18.2453 36.5129C18.4068 36.7237 18.6505 36.8343 18.897 36.8343C19.071 36.8343 19.2465 36.7791 19.3953 36.665C21.771 34.8447 23.1867 32.0889 23.2793 29.1045C23.2933 28.6516 22.9376 28.2732 22.4848 28.259Z" fill="#1E3658"/>
<path d="M17.0689 37.1627C16.9338 36.7303 16.4735 36.4892 16.0413 36.6244C16.0366 36.6259 16.0317 36.6275 16.0268 36.6291C15.6023 36.7691 15.3672 37.2245 15.501 37.6528C15.6107 38.0038 15.9345 38.2286 16.2838 38.2286C16.3647 38.2286 16.4473 38.2166 16.5286 38.1911C16.5333 38.1896 16.5382 38.188 16.5432 38.1864C16.9677 38.0464 17.2027 37.591 17.0689 37.1627Z" fill="#1E3658"/>
<path d="M41.7882 0.270129C41.6327 0.0981094 41.4116 0 41.1797 0H22.1626C21.9307 0 21.7098 0.0981094 21.5541 0.270129C21.3986 0.442148 21.3232 0.671918 21.3465 0.902672L23.2629 19.8863C21.9444 18.3906 20.2837 17.1847 18.3749 16.4027V11.6484C18.3749 11.1954 18.0076 10.8281 17.5546 10.8281H9.02341C8.57043 10.8281 8.2031 11.1954 8.2031 11.6484V16.4027C3.27468 18.4218 0 23.2675 0 28.6281V28.7918C0 36.0743 5.92477 41.999 13.2072 41.999H13.3708C18.2634 41.999 22.543 39.3249 24.8251 35.3615L24.9374 36.4736V39.5391C24.9374 40.896 26.0414 42 27.3984 42H35.944C37.301 42 38.4049 40.896 38.4049 39.5391V36.4736L41.9958 0.902754C42.0191 0.672 41.9437 0.442148 41.7882 0.270129ZM9.84372 12.4688H10.9101V14.5424C10.9101 14.9955 11.2775 15.3627 11.7304 15.3627C12.1834 15.3627 12.5507 14.9955 12.5507 14.5424V12.4688H14.0273V14.5424C14.0273 14.9955 14.3946 15.3627 14.8476 15.3627C15.3006 15.3627 15.6679 14.9955 15.6679 14.5424V12.4688H16.7343V16.1592H9.84372V12.4688ZM24.9374 28.7918C24.9374 35.1696 19.7486 40.3584 13.3708 40.3584H13.2072C6.82933 40.3584 1.64062 35.1696 1.64062 28.7918V28.6281C1.64062 23.8225 4.64558 19.489 9.13259 17.7998H17.4454C21.9325 19.4891 24.9374 23.8225 24.9374 28.6281V28.7918ZM36.7643 39.5391C36.7643 39.9914 36.3963 40.3594 35.944 40.3594H27.3984C26.946 40.3594 26.578 39.9914 26.578 39.5391V37.2528H36.7643V39.5391ZM39.9908 4.42969H29.586C29.1331 4.42969 28.7657 4.79694 28.7657 5.25C28.7657 5.70306 29.1331 6.07031 29.586 6.07031H39.8252L36.843 35.6121H26.4994L26.2727 33.3667H33.0587C33.5116 33.3667 33.879 32.9995 33.879 32.5464C33.879 32.0933 33.5116 31.7261 33.0587 31.7261H26.249C26.464 30.7821 26.578 29.8 26.578 28.7917V28.628C26.578 26.5557 26.0886 24.5605 25.2035 22.7757L23.0699 1.64063H40.2724L39.9908 4.42969Z" fill="#1E3658"/>
<path d="M27.3682 4.67004C27.2156 4.51746 27.004 4.42969 26.7882 4.42969C26.5725 4.42969 26.3609 4.51746 26.2084 4.67004C26.0558 4.82262 25.9679 5.03426 25.9679 5.25C25.9679 5.46574 26.0557 5.67738 26.2084 5.82996C26.3609 5.98254 26.5725 6.07031 26.7882 6.07031C27.004 6.07031 27.2155 5.98254 27.3682 5.82996C27.5208 5.67738 27.6086 5.46574 27.6086 5.25C27.6086 5.03426 27.5209 4.82262 27.3682 4.67004Z" fill="#1E3658"/>
<path d="M21.1142 27.7183C20.8759 27.4326 19.1662 25.4815 16.9107 25.4598C16.8986 25.4597 16.8866 25.4596 16.8746 25.4596C16.5814 25.4596 16.2978 25.4939 16.025 25.5526C16.0865 25.283 16.1231 25.003 16.1258 24.7144C16.1466 22.4963 14.1286 20.7546 13.7863 20.4752C13.642 20.349 13.453 20.2725 13.2462 20.2725C13.0419 20.2725 12.8549 20.3473 12.7113 20.471C12.4273 20.7078 10.4742 22.4188 10.4523 24.6747C10.4495 24.9784 10.4846 25.2728 10.5465 25.5563C10.2769 25.4975 9.99642 25.4625 9.70685 25.4597C9.69471 25.4596 9.68273 25.4595 9.67067 25.4595C7.5382 25.4595 5.88954 27.2228 5.50096 27.6777C5.43935 27.7403 5.38726 27.8131 5.34764 27.8946C5.21032 28.1769 5.24609 28.5128 5.43984 28.7598C5.51507 28.8558 7.31081 31.1112 9.66723 31.1331C9.67863 31.1331 9.68987 31.1332 9.70127 31.1332C9.99338 31.1332 10.2768 31.0972 10.5499 31.0353C10.4906 31.3061 10.4551 31.5877 10.4523 31.8786C10.4327 33.9772 12.1797 35.654 12.6581 36.0721C12.7233 36.1391 12.8003 36.1955 12.8874 36.2379C13.0014 36.2933 13.124 36.3206 13.2462 36.3206C13.4263 36.3206 13.6052 36.2612 13.7525 36.1457C13.8485 36.0704 16.1038 34.2748 16.1258 31.9183C16.1286 31.6125 16.0917 31.3162 16.0267 31.031C16.2982 31.0934 16.5803 31.1304 16.871 31.1331C16.8825 31.1332 16.8937 31.1333 16.9052 31.1333C19.106 31.1333 20.8307 29.1362 21.1098 28.7941C21.2363 28.6497 21.3129 28.4606 21.3129 28.2536C21.3129 28.049 21.2381 27.8621 21.1142 27.7183ZM13.2618 22.2251C13.8439 22.8391 14.4938 23.7745 14.4851 24.6991C14.4773 25.5389 13.9787 26.3239 13.5161 26.8736C13.4351 26.9428 13.3593 27.0105 13.2882 27.0762C13.1793 26.9765 13.0576 26.8711 12.9249 26.7638C12.4916 26.1932 12.0859 25.4451 12.093 24.6905C12.1026 23.6889 12.7719 22.7668 13.2618 22.2251ZM11.8692 28.5241C11.2749 29.0219 10.4847 29.4927 9.70086 29.4927C9.69487 29.4927 9.68864 29.4927 9.68249 29.4926C8.68097 29.4833 7.75591 28.7755 7.21696 28.2639C7.80111 27.7373 8.73068 27.1002 9.67174 27.1002C9.67822 27.1002 9.68478 27.1002 9.69118 27.1003C10.4893 27.108 11.2364 27.5348 11.7813 27.9557C11.8813 28.0779 11.9794 28.1904 12.073 28.2927C12.0072 28.3645 11.9389 28.4418 11.8692 28.5241ZM13.2564 34.3685C12.7262 33.7805 12.0841 32.842 12.093 31.8943C12.1014 31.0196 12.6129 30.2056 13.0687 29.6526C13.1455 29.5849 13.2178 29.5187 13.2855 29.4545C13.8614 30.0687 14.4937 30.9907 14.4852 31.9029C14.4758 32.9045 13.768 33.8297 13.2564 34.3685ZM16.9047 29.4928C16.8987 29.4928 16.8924 29.4928 16.8863 29.4927C15.9015 29.4835 14.9915 28.7994 14.4491 28.2902C14.5159 28.2193 14.5852 28.1433 14.6559 28.0623C15.238 27.5877 16.0524 27.1003 16.8756 27.1003C16.8821 27.1003 16.8887 27.1003 16.8951 27.1004C17.8967 27.1101 18.8188 27.7795 19.3604 28.2694C18.7504 28.8476 17.8236 29.4928 16.9047 29.4928Z" fill="#1E3658"/>
<path d="M32.2504 10.4998C32.1018 10.2898 31.857 10.1529 31.5802 10.1529C31.3093 10.1529 31.0691 10.2843 30.9196 10.487C30.5768 10.8736 29.6774 11.9797 28.7925 13.423C27.3337 15.8023 26.5847 17.9728 26.5663 19.8743C26.5256 24.2247 30.482 26.6061 31.1373 26.9705C31.1401 26.9723 31.1428 26.9741 31.1457 26.9758C31.1585 26.9838 31.1721 26.9895 31.1852 26.9967C31.1886 26.9986 31.192 27.0003 31.1954 27.0022C31.2651 27.0392 31.3384 27.0656 31.414 27.0812C31.4145 27.0813 31.4149 27.0814 31.4154 27.0815C31.4698 27.0926 31.5248 27.1002 31.5802 27.1002C31.7031 27.1002 31.8264 27.0726 31.9404 27.0168C32.1361 26.9212 36.7324 24.6209 36.7761 19.9411C36.8153 15.7736 33.0495 11.3776 32.2504 10.4998ZM30.7598 24.731C29.6458 23.8256 28.1853 22.1968 28.207 19.8901C28.2078 19.806 28.2109 19.7215 28.2152 19.637L30.7598 22.1815V24.731ZM30.7598 19.8612L28.5832 17.6846C29.0799 16.0788 29.9824 14.5371 30.7598 13.398V19.8612ZM32.4005 13.3C33.2215 14.4332 34.1974 15.9954 34.7333 17.6194L32.4005 19.9523V13.3ZM32.4005 24.7725V22.2726L35.1245 19.5486C35.1319 19.675 35.1366 19.8009 35.1355 19.926C35.1137 22.2551 33.5458 23.8885 32.4005 24.7725Z" fill="#1E3658"/>
</svg>
