<svg width="36" height="43" viewBox="0 0 36 43" fill="none" xmlns="http://www.w3.org/2000/svg">
<path fill-rule="evenodd" clip-rule="evenodd" d="M7.78878 13.8704C7.78878 14.3236 8.15619 14.691 8.60941 14.691H9.6113C10.0645 14.691 10.4319 14.3236 10.4319 13.8704V0.851845C10.4319 0.398629 10.0645 0.0312232 9.6113 0.0312232H4.34357C3.89035 0.0312232 3.52294 0.398629 3.52294 0.851845V11.2463C3.52294 11.6996 3.89035 12.067 4.34357 12.067C4.79678 12.067 5.16419 11.6996 5.16419 11.2463V1.67247H8.79068V13.0497H8.60941C8.15619 13.0497 7.78878 13.4171 7.78878 13.8704Z" fill="#1E3658"/>
<path fill-rule="evenodd" clip-rule="evenodd" d="M19.6224 41.1641C19.6224 41.6173 19.9898 41.9847 20.443 41.9847H27.3977C27.8509 41.9847 28.2183 41.6173 28.2183 41.1641V36.906C28.2183 36.4527 27.8509 36.0853 27.3977 36.0853H20.443C19.9898 36.0853 19.6224 36.4527 19.6224 36.906V41.1641ZM21.2636 40.3435V37.7266H26.5771V40.3435H21.2636Z" fill="#1E3658"/>
<path fill-rule="evenodd" clip-rule="evenodd" d="M11.8406 2.71618C11.8406 4.21633 13.0569 5.43235 14.557 5.43235H33.2837C34.7839 5.43235 36 4.21631 36 2.71618C36 1.21605 34.7839 0 33.2837 0H14.557C13.0569 0 11.8406 1.21602 11.8406 2.71618ZM14.557 3.79111C13.9632 3.79111 13.4819 3.30976 13.4819 2.71618C13.4819 2.1226 13.9632 1.64124 14.557 1.64124H33.2837C33.8775 1.64124 34.3588 2.12257 34.3588 2.71618C34.3588 3.30978 33.8775 3.79111 33.2837 3.79111H14.557Z" fill="#1E3658"/>
<path fill-rule="evenodd" clip-rule="evenodd" d="M15.8917 32.3347C15.9168 32.7688 16.2762 33.108 16.711 33.108H31.1296C31.5644 33.108 31.9238 32.7688 31.9489 32.3347L33.55 4.65917C33.563 4.43368 33.4826 4.21278 33.3275 4.04851C33.1725 3.88425 32.9566 3.79115 32.7307 3.79115H15.1098C14.884 3.79115 14.6681 3.88425 14.5131 4.04851C14.358 4.21278 14.2775 4.43368 14.2906 4.65917L15.8917 32.3347ZM17.4855 31.4667L15.9793 5.4324H31.8613L30.3551 31.4667H17.4855Z" fill="#1E3658"/>
<path fill-rule="evenodd" clip-rule="evenodd" d="M16.1589 36.9534C16.184 37.3875 16.5433 37.7266 16.9782 37.7266H30.8625C31.2973 37.7266 31.6566 37.3875 31.6818 36.9534L31.9489 32.3348C31.962 32.1093 31.8815 31.8884 31.7265 31.7241C31.5715 31.5598 31.3556 31.4667 31.1297 31.4667H16.711C16.4851 31.4667 16.2692 31.5598 16.1142 31.7241C15.9591 31.8884 15.8787 32.1092 15.8917 32.3347L16.1589 36.9534ZM17.7527 36.0854L17.5804 33.108H30.2602L30.088 36.0854H17.7527Z" fill="#1E3658"/>
<path fill-rule="evenodd" clip-rule="evenodd" d="M23.9203 24.3368C24.2203 24.3368 24.4963 24.1732 24.6403 23.91L26.3165 20.8455L29.3813 19.1695C29.6445 19.0256 29.8082 18.7495 29.8082 18.4495C29.8082 18.1495 29.6445 17.8735 29.3813 17.7295L26.3165 16.0535L24.6403 12.989C24.4963 12.7259 24.2203 12.5622 23.9203 12.5622C23.6203 12.5622 23.3443 12.7259 23.2003 12.9891L21.5242 16.0535L18.4594 17.7295C18.1962 17.8735 18.0325 18.1495 18.0325 18.4495C18.0325 18.7495 18.1962 19.0256 18.4594 19.1695L21.5242 20.8455L23.2003 23.91C23.3443 24.1732 23.6203 24.3368 23.9203 24.3368ZM23.9203 21.8062L22.8488 19.8471C22.7735 19.7094 22.6602 19.5962 22.5225 19.5209L20.5635 18.4495L22.5225 17.3782C22.6602 17.3029 22.7735 17.1897 22.8488 17.052L23.9203 15.0929L24.9919 17.052C25.0672 17.1897 25.1805 17.3029 25.3182 17.3782L27.2772 18.4495L25.3182 19.5209C25.1805 19.5962 25.0672 19.7094 24.9919 19.8471L23.9203 21.8062Z" fill="#1E3658"/>
<path fill-rule="evenodd" clip-rule="evenodd" d="M4.15998 41.1953C4.15998 41.6485 4.52738 42.0159 4.9806 42.0159H8.60939C9.06261 42.0159 9.43001 41.6485 9.43001 41.1953V31.5427C9.43001 31.0895 9.06261 30.7221 8.60939 30.7221C8.15617 30.7221 7.78877 31.0895 7.78877 31.5427V40.3746H5.80122V16.7451C5.80122 16.4568 5.65 16.1897 5.40284 16.0414L1.64124 13.7842V1.67254H3.52293V11.4104C3.52293 11.7144 3.69099 11.9935 3.95967 12.1357L7.78877 14.1623V24.1289C7.78877 24.5822 8.15617 24.9496 8.60939 24.9496C9.06261 24.9496 9.43001 24.5822 9.43001 24.1289V13.6681C9.43001 13.3641 9.26196 13.0851 8.99327 12.9428L5.16417 10.9162V0.851914C5.16417 0.398699 4.79677 0.0312936 4.34355 0.0312936H0.820622C0.367405 0.0312936 0 0.398699 0 0.851914V14.2488C0 14.5371 0.151226 14.8042 0.398383 14.9525L4.15998 17.2097V41.1953Z" fill="#1E3658"/>
</svg>
