<svg width="35" height="42" viewBox="0 0 35 42" fill="none" xmlns="http://www.w3.org/2000/svg">
<path fill-rule="evenodd" clip-rule="evenodd" d="M21.1387 1.47249C21.6698 3.8761 19.8406 6.2246 17.3074 6.2246H12.7439C10.4309 6.2246 8.53528 8.00599 8.35516 10.2702H25.6442C26.5686 8.95703 26.9433 7.22632 26.4229 5.4076C25.9047 3.59516 24.3864 2.13513 22.5557 1.66368C22.074 1.53951 21.5997 1.4782 21.1387 1.47249ZM25.8201 10.9771C25.8226 10.9772 25.8251 10.9772 25.8277 10.9771H31.0097V17.0822H3.99033V10.9771H25.8201ZM7.64635 10.2702C7.82798 7.61473 10.0409 5.51771 12.7439 5.51771H17.3074C19.5003 5.51771 21.0486 3.37146 20.3567 1.29305L20.3562 1.29144L20.3406 1.24643C20.3047 1.14223 20.3195 1.02725 20.3806 0.935503C20.4416 0.843752 20.542 0.785729 20.6519 0.778595C21.3243 0.734978 22.0229 0.796356 22.732 0.979121C24.8013 1.51203 26.5141 3.15545 27.1025 5.21311C27.6319 7.06317 27.3321 8.84668 26.4858 10.2702H31.7685C31.9637 10.2702 32.122 10.4285 32.122 10.6237C32.122 10.8189 31.9637 10.9771 31.7685 10.9771H31.7165V17.0822H34.1466C34.3418 17.0822 34.5 17.2404 34.5 17.4356V32.9606C34.5 37.0935 31.1477 40.4428 27.0123 40.4428H21.0671C20.8719 40.4428 20.7137 40.2845 20.7137 40.0893C20.7137 39.8941 20.8719 39.7359 21.0671 39.7359H27.0123C30.7579 39.7359 33.7931 36.7025 33.7931 32.9606V17.7891H29.394L29.3904 17.7891L29.3868 17.7891H5.61318L5.60959 17.7891L5.60601 17.7891H1.20686V32.9606C1.20686 36.7025 4.24219 39.7359 7.98767 39.7359H13.9329C14.1281 39.7359 14.2863 39.8941 14.2863 40.0893C14.2863 40.2845 14.1281 40.4428 13.9329 40.4428H7.98767C3.85235 40.4428 0.5 37.0935 0.5 32.9606V17.4356C0.5 17.2404 0.658236 17.0822 0.85343 17.0822H3.28347V10.9771H3.23157C3.03638 10.9771 2.87814 10.8189 2.87814 10.6237C2.87814 10.4285 3.03638 10.2702 3.23157 10.2702H7.64635ZM15.5612 22.4258C15.5612 22.2306 15.7195 22.0723 15.9146 22.0723H19.0854C19.2806 22.0723 19.4389 22.2306 19.4389 22.4258V26.8249H23.8416C24.0368 26.8249 24.195 26.9831 24.195 27.1783V30.3467C24.195 30.5419 24.0368 30.7001 23.8416 30.7001H19.4389V35.0992C19.4389 35.2944 19.2806 35.4526 19.0854 35.4526H15.9146C15.7195 35.4526 15.5612 35.2944 15.5612 35.0992V30.7001H11.1585C10.9633 30.7001 10.8051 30.5419 10.8051 30.3467V27.1783C10.8051 26.9831 10.9633 26.8249 11.1585 26.8249H15.5612V22.4258ZM16.2681 22.7792V27.1783C16.2681 27.3735 16.1098 27.5318 15.9146 27.5318H11.5119V29.9932H15.9146C16.1098 29.9932 16.2681 30.1515 16.2681 30.3467V34.7457H18.732V30.3467C18.732 30.1515 18.8902 29.9932 19.0854 29.9932H23.4882V27.5318H19.0854C18.8902 27.5318 18.732 27.3735 18.732 27.1783V22.7792H16.2681ZM17.5 39.6507C17.2572 39.6507 17.0608 39.8474 17.0608 40.0894C17.0608 40.3313 17.2572 40.528 17.5 40.528C17.7428 40.528 17.9393 40.3313 17.9393 40.0894C17.9393 39.8474 17.7428 39.6507 17.5 39.6507ZM16.3539 40.0894C16.3539 39.4564 16.8674 38.9438 17.5 38.9438C18.1326 38.9438 18.6461 39.4564 18.6461 40.0894C18.6461 40.7223 18.1326 41.2349 17.5 41.2349C16.8674 41.2349 16.3539 40.7223 16.3539 40.0894Z" fill="#1E3658"/>
<path fill-rule="evenodd" clip-rule="evenodd" d="M20.6199 0.27376C21.3447 0.226748 22.0956 0.29309 22.8553 0.488882C25.0914 1.06473 26.9437 2.83742 27.5828 5.07253C28.061 6.74367 27.9104 8.37237 27.3065 9.76436H31.7685C32.2344 9.76436 32.622 10.1436 32.622 10.6237C32.622 10.9354 32.4586 11.2045 32.2165 11.355V16.5763H34.1466C34.6124 16.5763 35 16.9555 35 17.4356V32.9606C35 37.3788 31.418 40.9487 27.0123 40.9487H21.0671C20.6013 40.9487 20.2137 40.5695 20.2137 40.0893C20.2137 39.6092 20.6013 39.23 21.0671 39.23H27.0123C30.4876 39.23 33.2931 36.4173 33.2931 32.9606V18.295H29.3942L29.3904 18.295L29.3868 18.295H5.61335L5.60959 18.295L5.60601 18.295H1.70686V32.9606C1.70686 36.4172 4.51246 39.23 7.98767 39.23H13.9329C14.3987 39.23 14.7863 39.6092 14.7863 40.0893C14.7863 40.5695 14.3987 40.9487 13.9329 40.9487H7.98767C3.5821 40.9487 0 37.3788 0 32.9606V17.4356C0 16.9555 0.387592 16.5763 0.85343 16.5763H2.78347V11.355C2.54145 11.2045 2.37814 10.9353 2.37814 10.6237C2.37814 10.1436 2.76573 9.76436 3.23157 9.76436H7.19967C7.61367 7.06799 9.94258 5.01183 12.7439 5.01183H17.3074C19.1669 5.01183 20.4624 3.19721 19.8831 1.45533L19.8825 1.45333L19.8686 1.4131C19.7807 1.15803 19.817 0.876564 19.9658 0.653008C20.1142 0.429867 20.3566 0.290839 20.6199 0.27376ZM21.7211 2.01838C21.9551 2.04729 22.1924 2.09207 22.4323 2.1539C24.0962 2.5824 25.4751 3.91313 25.9426 5.54818C26.3914 7.11653 26.1129 8.60158 25.3787 9.76436H8.9365C9.32792 8.03158 10.8798 6.73047 12.7439 6.73047H17.3074C19.9272 6.73047 21.8891 4.49491 21.7211 2.01838ZM4.49033 11.483V16.5763H30.5097V11.483H25.8277L25.8201 11.483L4.49033 11.483ZM15.0612 22.4258C15.0612 21.9457 15.4488 21.5665 15.9146 21.5665H19.0854C19.5513 21.5665 19.9389 21.9457 19.9389 22.4258V26.319H23.8416C24.3074 26.319 24.695 26.6982 24.695 27.1783V30.3467C24.695 30.8268 24.3074 31.206 23.8416 31.206H19.9389V35.0992C19.9389 35.5793 19.5513 35.9585 19.0854 35.9585H15.9146C15.4488 35.9585 15.0612 35.5793 15.0612 35.0992V31.206H11.1585C10.6927 31.206 10.3051 30.8268 10.3051 30.3467V27.1783C10.3051 26.6982 10.6926 26.319 11.1585 26.319H15.0612V22.4258ZM16.7681 23.2851V27.1783C16.7681 27.6584 16.3805 28.0376 15.9146 28.0376H12.0119V29.4873H15.9146C16.3805 29.4873 16.7681 29.8665 16.7681 30.3467V34.2399H18.232V30.3467C18.232 29.8665 18.6196 29.4873 19.0854 29.4873H22.9882V28.0376H19.0854C18.6196 28.0376 18.232 27.6584 18.232 27.1783V23.2851H16.7681ZM15.8539 40.0894C15.8539 39.171 16.5972 38.4379 17.5 38.4379C18.4028 38.4379 19.1461 39.171 19.1461 40.0894C19.1461 41.0077 18.4028 41.7408 17.5 41.7408C16.5972 41.7408 15.8539 41.0077 15.8539 40.0894ZM17.5 40.1566C17.5275 40.1566 17.5608 40.1326 17.5608 40.0894C17.5608 40.0461 17.5275 40.0221 17.5 40.0221C17.4725 40.0221 17.4393 40.0461 17.4393 40.0894C17.4393 40.1326 17.4725 40.1566 17.5 40.1566Z" fill="#1E3658"/>
</svg>
