<svg width="42" height="42" viewBox="0 0 42 42" fill="none" xmlns="http://www.w3.org/2000/svg">
<path fill-rule="evenodd" clip-rule="evenodd" d="M4.19964 14.7001H23.7982C24.1848 14.7001 24.4981 14.3866 24.4981 14.0001C24.4981 13.6135 24.1847 13.3001 23.7982 13.3001H4.19964C3.81306 13.3001 3.49972 13.6136 3.49972 14.0001C3.49972 14.3866 3.81306 14.7001 4.19964 14.7001Z" fill="#1E3658"/>
<path fill-rule="evenodd" clip-rule="evenodd" d="M6.29949 37.8H4.19964V35.7C4.19964 35.3134 3.88622 35.0001 3.49972 35.0001C3.11322 35.0001 2.7998 35.3134 2.7998 35.7V38.5C2.7998 38.8866 3.11322 39.2 3.49972 39.2H6.29949C6.68608 39.2 6.99941 38.8866 6.99941 38.5C6.99941 38.1134 6.68608 37.8 6.29949 37.8Z" fill="#1E3658"/>
<path fill-rule="evenodd" clip-rule="evenodd" d="M8.39934 5.60004C8.78593 5.60004 9.09926 5.2866 9.09926 4.90007V3.50005C9.09926 3.11343 8.78584 2.80007 8.39934 2.80007C8.01276 2.80007 7.69942 3.11351 7.69942 3.50005V4.90007C7.69942 5.28668 8.01276 5.60004 8.39934 5.60004Z" fill="#1E3658"/>
<path fill-rule="evenodd" clip-rule="evenodd" d="M5.59957 5.60004C5.98615 5.60004 6.29949 5.2866 6.29949 4.90007V3.50005C6.29949 3.11343 5.98615 2.80007 5.59957 2.80007C5.21298 2.80007 4.89965 3.11351 4.89965 3.50005V4.90007C4.89956 5.28668 5.21298 5.60004 5.59957 5.60004Z" fill="#1E3658"/>
<path fill-rule="evenodd" clip-rule="evenodd" d="M22.3984 5.60004C22.7849 5.60004 23.0983 5.2866 23.0983 4.90007V3.50005C23.0983 3.11343 22.7849 2.80007 22.3984 2.80007C22.0118 2.80007 21.6984 3.11351 21.6984 3.50005V4.90007C21.6984 5.28668 22.0118 5.60004 22.3984 5.60004Z" fill="#1E3658"/>
<path fill-rule="evenodd" clip-rule="evenodd" d="M11.1991 5.60004C11.5857 5.60004 11.899 5.2866 11.899 4.90007V3.50005C11.899 3.11343 11.5856 2.80007 11.1991 2.80007C10.8126 2.80007 10.4992 3.11343 10.4992 3.50005V4.90007C10.4992 5.28668 10.8126 5.60004 11.1991 5.60004Z" fill="#1E3658"/>
<path fill-rule="evenodd" clip-rule="evenodd" d="M13.999 5.60004C14.3856 5.60004 14.6989 5.2866 14.6989 4.90007V3.50005C14.6989 3.11343 14.3855 2.80007 13.999 2.80007C13.6124 2.80007 13.299 3.11351 13.299 3.50005V4.90007C13.299 5.28668 13.6124 5.60004 13.999 5.60004Z" fill="#1E3658"/>
<path fill-rule="evenodd" clip-rule="evenodd" d="M16.7987 5.60004C17.1853 5.60004 17.4987 5.2866 17.4987 4.90007V3.50005C17.4987 3.11343 17.1852 2.80007 16.7987 2.80007C16.4121 2.80007 16.0988 3.11351 16.0988 3.50005V4.90007C16.0988 5.28668 16.4121 5.60004 16.7987 5.60004Z" fill="#1E3658"/>
<path fill-rule="evenodd" clip-rule="evenodd" d="M19.5985 5.60004C19.9851 5.60004 20.2984 5.2866 20.2984 4.90007V3.50005C20.2984 3.11343 19.985 2.80007 19.5985 2.80007C19.2119 2.80007 18.8986 3.11351 18.8986 3.50005V4.90007C18.8986 5.28668 19.212 5.60004 19.5985 5.60004Z" fill="#1E3658"/>
<path d="M39.5471 28H30.6018L29.7969 25.5836C29.519 24.7544 28.8431 24.1203 27.998 23.8959V14.231C27.998 13.4737 27.7524 12.7368 27.298 12.131L24.4198 8.29498C25.296 8.0251 25.895 7.21685 25.8981 6.29999V2.1C25.8981 0.94024 24.9579 0 23.7983 0H4.1997C3.04002 0 2.09985 0.94024 2.09985 2.1V6.29999C2.10305 7.21685 2.702 8.0251 3.57811 8.29498L0.699922 12.1338C0.245584 12.7397 0 13.4766 0 14.2338V38.5C0.00229671 40.432 1.56783 41.9976 3.49978 42H26.8291C27.7347 42.0021 28.5392 41.4222 28.8232 40.5622L31.3795 32.9H39.5471C40.1968 32.8992 40.82 32.6419 41.2809 32.1839C41.9828 31.4832 42.193 30.4284 41.8132 29.512C41.4335 28.5956 40.539 27.9988 39.5471 28ZM28.4698 26.0267L29.127 27.9999H17.0696L17.7269 26.0273C17.8917 25.5332 18.354 25.1999 18.8749 25.1999H20.0445C20.865 25.1978 21.6371 24.8115 22.131 24.1563C22.3673 23.8643 22.7227 23.6948 23.0983 23.6948C23.4739 23.6948 23.8293 23.8644 24.0657 24.1563C24.5596 24.8114 25.3317 25.1977 26.1522 25.1999H27.3218C27.8425 25.1997 28.3049 25.5327 28.4698 26.0267ZM14.1047 30.7621L14.5841 32.1999H1.39993V19.5999H26.5981V23.7999H26.1522C25.7719 23.7988 25.414 23.6198 25.1849 23.3162C24.6923 22.6593 23.9193 22.2728 23.0983 22.2728C22.2773 22.2728 21.5043 22.6594 21.0118 23.3162C20.7827 23.6198 20.4248 23.7988 20.0445 23.7999H18.8749C17.7514 23.7988 16.7538 24.518 16.3998 25.5842L15.5704 28.0699C15.0973 28.193 14.6817 28.4766 14.3945 28.8721C13.9961 29.4175 13.888 30.1225 14.1047 30.7621ZM3.49978 2.10008C3.49978 1.71347 3.81319 1.40011 4.1997 1.40011H23.7983C24.1848 1.40011 24.4982 1.71355 24.4982 2.10008V6.30007C24.4982 6.68668 24.1848 7.00004 23.7983 7.00004H4.1997C3.81311 7.00004 3.49978 6.68668 3.49978 6.30007V2.10008ZM1.8199 12.971L5.24962 8.40006H22.7483L26.1781 12.9683C26.4506 13.3318 26.598 13.7739 26.598 14.2283V18.2001H1.39984V14.2311C1.39993 13.7766 1.54724 13.3345 1.8199 12.971ZM1.39993 38.5V33.6H15.0489L17.37 40.5601C17.3749 40.5741 17.3819 40.586 17.3868 40.6H3.49978C2.34002 40.6 1.39993 39.6597 1.39993 38.5ZM40.2905 31.1941C40.0928 31.3902 39.8256 31.5002 39.5472 31.5H27.298C26.9114 31.5 26.5981 31.8135 26.5981 32.2C26.5981 32.5866 26.9114 32.9 27.298 32.9H29.904L27.4947 40.1218C27.3991 40.408 27.1308 40.6007 26.8291 40.5999H19.3677C19.0649 40.6005 18.796 40.4065 18.7013 40.119L15.4332 30.319C15.3605 30.1057 15.3968 29.8704 15.5305 29.689C15.6619 29.5062 15.8738 29.3985 16.0989 29.3999H39.5472C39.9728 29.3989 40.3569 29.6548 40.5198 30.048C40.6826 30.4412 40.592 30.8938 40.2905 31.1941Z" fill="#1E3658"/>
</svg>
