<svg width="1036" height="1036" viewBox="0 0 1036 1036" fill="none" xmlns="http://www.w3.org/2000/svg">
<path d="M534.75 1036H501.245C439.286 1036 388.901 985.615 388.901 923.698V742.641C388.901 689.948 346.047 647.094 293.354 647.094H112.297C50.3802 647.094 0 596.708 0 534.75V501.245C0 439.286 50.3802 388.901 112.297 388.901H293.354C346.047 388.901 388.901 346.047 388.901 293.354V112.297C388.901 50.3802 439.286 0 501.245 0H534.75C596.667 0 647.094 50.3802 647.094 112.297V293.354C647.094 346.047 689.948 388.901 742.641 388.901H923.698C985.615 388.901 1036 439.286 1036 501.245V534.75C1036 596.708 985.615 647.094 923.698 647.094H742.599C689.948 647.094 647.094 689.948 647.094 742.641V923.698C647.094 974 631 1036 534.75 1036Z" fill="#1a1a1a"/>
</svg>
