<svg width="96" height="96" viewBox="0 0 96 96" fill="none" xmlns="http://www.w3.org/2000/svg">
<path fill-rule="evenodd" clip-rule="evenodd" d="M9.73633 86.606L15.1243 66.936C11.8003 61.18 10.0523 54.648 10.0543 47.958C10.0643 27.028 27.0963 10 48.0283 10C58.1863 10.004 67.7183 13.958 74.8883 21.132C82.0563 28.308 86.0043 37.844 86.0003 47.988C85.9923 68.918 68.9563 85.948 48.0283 85.948H48.0123C41.6583 85.946 35.4123 84.352 29.8663 81.326L9.73633 86.606Z" fill="white"/>
<path fill-rule="evenodd" clip-rule="evenodd" d="M9.73643 87.606C9.47243 87.606 9.21643 87.502 9.02643 87.31C8.77643 87.056 8.67843 86.686 8.77243 86.344L14.0504 67.072C10.7784 61.26 9.05243 54.66 9.05643 47.96C9.06443 26.476 26.5464 9 48.0284 9C58.4484 9.004 68.2384 13.062 75.5964 20.426C82.9544 27.792 87.0044 37.58 87.0004 47.988C86.9924 69.47 69.5084 86.948 48.0284 86.948C41.6504 86.946 35.3404 85.372 29.7404 82.394L9.99043 87.572C9.90643 87.596 9.82243 87.606 9.73643 87.606Z" fill="white"/>
<path fill-rule="evenodd" clip-rule="evenodd" d="M48.0282 9.99997C58.1862 10.004 67.7182 13.958 74.8882 21.132C82.0562 28.308 86.0042 37.844 86.0002 47.988C85.9922 68.918 68.9562 85.948 48.0282 85.948H48.0122C41.6582 85.946 35.4122 84.352 29.8662 81.326L9.73617 86.606L15.1242 66.936C11.8002 61.18 10.0522 54.648 10.0542 47.958C10.0642 27.028 27.0962 9.99997 48.0282 9.99997ZM48.0282 7.99997C25.9962 7.99997 8.06417 25.924 8.05417 47.958C8.05217 54.692 9.75217 61.328 12.9762 67.202L7.80617 86.08C7.61817 86.77 7.81017 87.506 8.31417 88.014C8.69417 88.398 9.20817 88.608 9.73617 88.608C9.90617 88.608 10.0762 88.586 10.2442 88.542L29.6182 83.462C35.2742 86.398 41.6142 87.948 48.0122 87.95C70.0602 87.95 87.9922 70.024 88.0022 47.99C88.0062 37.312 83.8522 27.272 76.3062 19.72C68.7562 12.166 58.7142 8.00397 48.0282 7.99997Z" fill="#E63946"/>
<path fill-rule="evenodd" clip-rule="evenodd" d="M70.3519 25.664C64.3919 19.7 56.4699 16.414 48.0379 16.412C30.6299 16.412 16.4719 30.564 16.4639 47.96C16.4619 53.922 18.1299 59.726 21.2899 64.752L22.0419 65.946L18.8519 77.588L30.7979 74.456L31.9519 75.14C36.7959 78.016 42.3519 79.536 48.0159 79.538H48.0279C65.4239 79.538 79.5819 65.384 79.5879 47.986C79.5899 39.556 76.3119 31.628 70.3519 25.664Z" fill="#1E3658"/>
<path fill-rule="evenodd" clip-rule="evenodd" d="M38.5365 32.09C37.8265 30.51 37.0785 30.478 36.4005 30.45C35.8465 30.426 35.2145 30.428 34.5825 30.428C33.9505 30.428 32.9225 30.666 32.0525 31.616C31.1825 32.566 28.7305 34.86 28.7305 39.528C28.7305 44.196 32.1305 48.708 32.6045 49.34C33.0785 49.972 39.1685 59.858 48.8125 63.662C56.8265 66.822 58.4585 66.194 60.1985 66.036C61.9385 65.878 65.8125 63.742 66.6025 61.526C67.3925 59.31 67.3925 57.412 67.1565 57.016C66.9185 56.62 66.2865 56.384 65.3385 55.908C64.3905 55.432 59.7245 53.138 58.8545 52.822C57.9845 52.506 57.3525 52.348 56.7185 53.298C56.0865 54.246 54.2685 56.384 53.7145 57.016C53.1605 57.65 52.6065 57.73 51.6585 57.254C50.7105 56.778 47.6545 55.778 44.0285 52.546C41.2085 50.032 39.3045 46.926 38.7505 45.976C38.1965 45.028 38.6905 44.514 39.1665 44.04C39.5925 43.614 40.1145 42.932 40.5905 42.378C41.0645 41.824 41.2225 41.428 41.5385 40.796C41.8545 40.162 41.6965 39.608 41.4585 39.134C41.2245 38.658 39.3805 33.966 38.5365 32.09Z" fill="white"/>
</svg>
